<svg version="1.1" id="Layer_1" xmlns="http://www.w3.org/2000/svg" xmlns:xlink="http://www.w3.org/1999/xlink" x="0px" y="0px"
	 width="100%" viewBox="0 0 432 432" enable-background="new 0 0 432 432" xml:space="preserve">
<path fill="#AE1F59" opacity="1.000000" stroke="none" 
	d="
M1.000001,428.000000 
	C1.000000,287.976685 1.000000,147.953354 1.365519,7.475189 
	C3.516096,4.696395 8.076485,5.262374 8.000000,1.000000 
	C147.023331,1.000000 286.046661,1.000000 425.311340,1.332144 
	C428.035156,3.442860 430.517578,5.221431 433.000000,7.000001 
	C433.000000,147.023331 433.000000,287.046661 432.703003,427.275452 
	C430.937317,429.320648 429.468658,431.160339 428.000000,433.000000 
	C287.643341,433.000000 147.286682,433.000000 6.744019,432.711121 
	C4.705342,430.948181 2.852672,429.474091 1.000001,428.000000 
M140.196655,296.971161 
	C110.673111,293.311615 84.795174,281.415710 61.665611,260.991760 
	C61.665611,267.342834 61.602715,272.300537 61.675297,277.256226 
	C62.438564,329.368530 103.933441,370.534668 156.126694,370.572662 
	C197.446777,370.602753 238.769775,370.401031 280.086823,369.911041 
	C336.615875,369.240601 380.217346,317.420441 371.591034,261.550659 
	C364.255890,214.043335 326.036316,181.245453 277.856384,181.312393 
	C249.032135,181.352432 220.208206,181.650131 191.384277,181.853241 
	C189.798981,181.864410 188.215057,182.070663 186.154694,182.220764 
	C186.154694,190.244354 186.154694,197.793488 186.154694,206.245895 
	C160.761215,190.492401 136.161026,175.231049 110.939430,159.584198 
	C136.238312,143.549835 160.626816,128.092438 186.010025,112.004623 
	C186.010025,115.992599 185.908646,118.761902 186.032303,121.521118 
	C186.252304,126.430435 186.608566,131.333649 187.547699,136.452896 
	C187.769379,136.415207 187.991058,136.377518 189.096649,136.579285 
	C218.419418,136.427826 247.742081,136.252625 277.064972,136.131088 
	C311.175140,135.989716 341.513489,146.603958 368.007324,168.135498 
	C369.067841,168.997360 370.246185,169.714203 371.916382,170.880371 
	C371.916382,166.009155 371.934418,162.021301 371.913666,158.033630 
	C371.640869,105.608757 330.481445,63.821808 278.107880,63.535000 
	C236.123932,63.305080 194.113434,63.091873 152.154480,64.277962 
	C91.680992,65.987427 60.281734,119.179062 61.420971,156.849747 
	C63.080845,211.736176 103.809959,252.949265 158.863510,252.739075 
	C187.021149,252.631577 215.178299,252.393539 243.335556,252.197861 
	C245.109940,252.185532 246.883301,252.028168 249.275269,251.906952 
	C249.275269,243.835587 249.275269,236.163620 249.275269,227.757233 
	C274.719116,243.542419 299.349030,258.822662 324.477081,274.411926 
	C322.010620,276.002167 320.344299,277.085236 318.669525,278.154999 
	C296.779358,292.137146 274.888000,306.117401 252.206970,320.347626 
	C248.715530,322.147491 249.560898,319.160400 249.536118,317.718842 
	C249.422531,311.113617 249.486160,304.505341 249.486160,298.026611 
	C225.823547,298.026611 202.917679,298.026611 179.217712,297.870758 
	C178.144806,297.928772 177.071915,297.986816 175.071945,297.897461 
	C163.715851,297.660248 152.359772,297.423035 140.196655,296.971161 
z"/>
<path fill="#000000" opacity="1.000000" stroke="none" 
	d="
M7.502095,1.000000 
	C8.076485,5.262374 3.516096,4.696395 1.365519,7.010177 
	C1.000000,5.079329 1.000000,3.158659 1.000000,1.000000 
	C2.998669,1.000000 5.001430,1.000000 7.502095,1.000000 
z"/>
<path fill="#000000" opacity="1.000000" stroke="none" 
	d="
M433.000000,6.500530 
	C430.517578,5.221431 428.035156,3.442860 425.776367,1.332144 
	C428.240204,1.000000 430.480377,1.000000 433.000000,1.000000 
	C433.000000,2.662770 433.000000,4.331913 433.000000,6.500530 
z"/>
<path fill="#000000" opacity="1.000000" stroke="none" 
	d="
M1.000001,428.499969 
	C2.852672,429.474091 4.705342,430.948181 6.279006,432.711121 
	C4.421042,433.000000 2.842084,433.000000 1.000000,433.000000 
	C1.000000,431.670563 1.000000,430.335266 1.000001,428.499969 
z"/>
<path fill="#000000" opacity="1.000000" stroke="none" 
	d="
M428.499969,433.000000 
	C429.468658,431.160339 430.937317,429.320648 432.703003,427.740479 
	C433.000000,429.578949 433.000000,431.157928 433.000000,433.000000 
	C431.670563,433.000000 430.335266,433.000000 428.499969,433.000000 
z"/>
<path fill="#F7D40D" opacity="1.000000" stroke="none" 
	d="
M186.907837,136.239410 
	C186.608566,131.333649 186.252304,126.430435 186.032303,121.521118 
	C185.908646,118.761902 186.010025,115.992599 186.010025,112.004623 
	C160.626816,128.092438 136.238312,143.549835 110.939430,159.584198 
	C136.161026,175.231049 160.761215,190.492401 186.154694,206.245895 
	C186.154694,197.793488 186.154694,190.244354 186.154694,182.220764 
	C188.215057,182.070663 189.798981,181.864410 191.384277,181.853241 
	C220.208206,181.650131 249.032135,181.352432 277.856384,181.312393 
	C326.036316,181.245453 364.255890,214.043335 371.591034,261.550659 
	C380.217346,317.420441 336.615875,369.240601 280.086823,369.911041 
	C238.769775,370.401031 197.446777,370.602753 156.126694,370.572662 
	C103.933441,370.534668 62.438564,329.368530 61.675297,277.256226 
	C61.602715,272.300537 61.665611,267.342834 61.665611,260.991760 
	C84.795174,281.415710 110.673111,293.311615 140.860580,297.332336 
	C151.754074,298.738037 161.975677,299.884186 172.224091,300.688660 
	C173.405945,300.781403 174.737091,298.972229 175.999008,298.044861 
	C177.071915,297.986816 178.144806,297.928772 179.997314,298.098999 
	C183.238861,298.552094 185.700180,298.963745 188.162842,298.971924 
	C205.899918,299.030792 223.637360,298.975830 241.374481,299.029083 
	C247.215820,299.046631 247.882812,299.800201 247.983902,305.702515 
	C248.054855,309.845154 247.847427,314.006409 248.178055,318.126190 
	C248.436142,321.342041 249.966217,322.926208 252.996918,320.098145 
	C274.888000,306.117401 296.779358,292.137146 318.669525,278.154999 
	C320.344299,277.085236 322.010620,276.002167 324.477081,274.411926 
	C299.349030,258.822662 274.719116,243.542419 249.275269,227.757233 
	C249.275269,236.163620 249.275269,243.835587 249.275269,251.906952 
	C246.883301,252.028168 245.109940,252.185532 243.335556,252.197861 
	C215.178299,252.393539 187.021149,252.631577 158.863510,252.739075 
	C103.809959,252.949265 63.080845,211.736176 61.420971,156.849747 
	C60.281734,119.179062 91.680992,65.987427 152.154480,64.277962 
	C194.113434,63.091873 236.123932,63.305080 278.107880,63.535000 
	C330.481445,63.821808 371.640869,105.608757 371.913666,158.033630 
	C371.934418,162.021301 371.916382,166.009155 371.916382,170.880371 
	C370.246185,169.714203 369.067841,168.997360 368.007324,168.135498 
	C341.513489,146.603958 311.175140,135.989716 277.064972,136.131088 
	C247.742081,136.252625 218.419418,136.427826 188.490036,136.436981 
	C187.560226,136.248077 187.235031,136.229660 186.907837,136.239410 
z"/>
<path fill="#F7D70D" opacity="1.000000" stroke="none" 
	d="
M252.601944,320.222900 
	C249.966217,322.926208 248.436142,321.342041 248.178055,318.126190 
	C247.847427,314.006409 248.054855,309.845154 247.983902,305.702515 
	C247.882812,299.800201 247.215820,299.046631 241.374481,299.029083 
	C223.637360,298.975830 205.899918,299.030792 188.162842,298.971924 
	C185.700180,298.963745 183.238861,298.552094 180.394379,298.176941 
	C202.917679,298.026611 225.823547,298.026611 249.486160,298.026611 
	C249.486160,304.505341 249.422531,311.113617 249.536118,317.718842 
	C249.560898,319.160400 248.715530,322.147491 252.601944,320.222900 
z"/>
<path fill="#F7D70D" opacity="1.000000" stroke="none" 
	d="
M175.535477,297.971161 
	C174.737091,298.972229 173.405945,300.781403 172.224091,300.688660 
	C161.975677,299.884186 151.754074,298.738037 141.264099,297.439697 
	C152.359772,297.423035 163.715851,297.660248 175.535477,297.971161 
z"/>
<path fill="#FCE108" opacity="1.000000" stroke="none" 
	d="
M187.227753,136.346161 
	C187.235031,136.229660 187.560226,136.248077 188.048065,136.317261 
	C187.991058,136.377518 187.769379,136.415207 187.227753,136.346161 
z"/>
</svg>